<svg width="309" height="386" viewBox="0 0 309 386" fill="none" xmlns="http://www.w3.org/2000/svg">
<path d="M153.5 187.625C153.7 187.625 153.8 187.625 154 187.625C154.2 187.625 154.3 187.625 154.5 187.625C238.7 186.725 226.5 74.3249 226.5 74.3249C223 -0.775063 160.2 -0.17506 154 0.0249396C147.8 -0.17506 84.9003 -0.875061 81.5003 74.3249C81.4003 74.3249 69.2003 186.725 153.5 187.625Z" fill="#23B8B7"/>
<path d="M208.4 208.625L179.2 301.025L162.1 252.625C192.1 210.825 160 208.725 154.3 208.625C154.2 208.625 154.2 208.625 154.1 208.625C154 208.625 154 208.625 153.9 208.625C148.2 208.725 116.1 210.725 146.1 252.625L129 301.025L99.8 208.625C99.8 208.625 63.1 226.425 30.2 247.125C5.4 262.725 0.8 279.425 0.1 303.725L0 385.625H154.2H202.8C202.2 383.625 201.9 381.525 201.9 379.325V303.525C201.9 290.825 212.2 280.525 224.9 280.525H253.4C255.5 280.525 257.5 280.825 259.5 281.325V269.425C259.5 258.325 267.3 249.125 277.7 246.925C245 226.325 208.4 208.625 208.4 208.625Z" fill="#23B8B7"/>
<path d="M100.3 208.5L129.5 300.9L146.6 252.5C116.6 210.7 148.7 208.6 154.4 208.5C154.5 208.5 154.5 208.5 154.6 208.5C154.7 208.5 154.7 208.5 154.8 208.5C160.5 208.6 192.6 210.6 162.6 252.5L179.7 300.9L208.9 208.5C208.9 208.5 245.6 226.3 278.5 247C303.3 262.6 307.9 279.3 308.6 303.6L308.7 385.5H154.5H105.9C106.5 383.5 106.8 381.4 106.8 379.2V303.4C106.8 290.7 96.5002 280.4 83.8002 280.4H55.3002C53.2002 280.4 51.2002 280.7 49.2002 281.2V269.3C49.2002 258.2 41.4002 249 31.0002 246.8C63.7002 226.2 100.3 208.5 100.3 208.5Z" fill="#23B8B7"/>
</svg>
