<?xml version="1.0" ?><!DOCTYPE svg  PUBLIC '-//W3C//DTD SVG 1.0//EN'  'http://www.w3.org/TR/2001/REC-SVG-20010904/DTD/svg10.dtd'><svg class="summa" enable-background="new 0 0 100 100" height="100px" id="Layer_1" version="1.0" viewBox="0 0 100 100" width="100px" xml:space="preserve" xmlns="http://www.w3.org/2000/svg" xmlns:xlink="http://www.w3.org/1999/xlink"><path d="  M65.001,10H35C21.248,10,10,21.25,10,35v29.999C10,78.748,21.248,90,35,90h30.001C78.751,90,90,78.748,90,64.998V35  C90,21.25,78.751,10,65.001,10z M50,70.002c-11.044,0-20.002-8.961-20.002-20.001c0-11.046,8.958-20,20.002-20  c11.041,0,19.999,8.954,19.999,20C69.999,61.041,61.041,70.002,50,70.002z M71.876,32.499c-2.416,0-4.375-1.959-4.375-4.374  c0-2.417,1.959-4.375,4.375-4.375c2.414,0,4.375,1.958,4.375,4.375C76.251,30.54,74.29,32.499,71.876,32.499z" fill="none" stroke="#000000" stroke-linecap="round" stroke-linejoin="round" stroke-miterlimit="10" stroke-width="2"/><path d="  M69.999,50c0,11.041-8.958,20.001-19.999,20.001c-11.044,0-20.002-8.961-20.002-20.001c0-11.046,8.958-20,20.002-20  C61.041,30,69.999,38.955,69.999,50z" fill="none" stroke="#000000" stroke-linecap="round" stroke-linejoin="round" stroke-miterlimit="10" stroke-width="2"/><circle cx="71.876" cy="28.125" fill="none" r="4.375" stroke="#000000" stroke-linecap="round" stroke-linejoin="round" stroke-miterlimit="10" stroke-width="2"/><path d="  M62.499,50c0,6.9-5.599,12.501-12.499,12.501c-6.903,0-12.501-5.602-12.501-12.501c0-6.905,5.599-12.5,12.501-12.5  C56.9,37.5,62.499,43.095,62.499,50z" fill="none" stroke="#000000" stroke-linecap="round" stroke-linejoin="round" stroke-miterlimit="10" stroke-width="2"/></svg>